HIERARCHY
ROOT Hips
{
	OFFSET 0.0000 0.0000 0.0000
	CHANNELS 6 Xposition Yposition Zposition Zrotation Xrotation Yrotation
	JOINT Ab
	{
		OFFSET -0.0000 8.1305 -0.0000
		CHANNELS 3 Zrotation Xrotation Yrotation
		JOINT Chest
		{
			OFFSET -0.0000 26.2902 -0.0000
			CHANNELS 3 Zrotation Xrotation Yrotation
			JOINT Neck
			{
				OFFSET -0.0000 26.2902 0.0000
				CHANNELS 3 Zrotation Xrotation Yrotation
				JOINT Head
				{
					OFFSET -0.0000 10.8167 0.0000
					CHANNELS 3 Zrotation Xrotation Yrotation
					End Site
					{
						OFFSET -0.0000 16.7167 0.0000
					}
				}
			}
			JOINT LeftCollar
			{
				OFFSET -0.0000 26.2902 0.0000
				CHANNELS 3 Zrotation Xrotation Yrotation
				JOINT LeftShoulder
				{
					OFFSET 19.6667 -0.0000 0.0000
					CHANNELS 3 Zrotation Xrotation Yrotation
					JOINT LeftElbow
					{
						OFFSET 27.2190 0.0000 0.0000
						CHANNELS 3 Zrotation Xrotation Yrotation
						JOINT LeftWrist
						{
							OFFSET 30.7431 0.0000 0.0000
							CHANNELS 3 Zrotation Xrotation Yrotation
							End Site
							{
								OFFSET 0.0000 -14.7500 0.0000
							}
						}
					}
				}
			}
			JOINT RightCollar
			{
				OFFSET -0.0000 26.2902 0.0000
				CHANNELS 3 Zrotation Xrotation Yrotation
				JOINT RightShoulder
				{
					OFFSET -19.6667 0.0000 0.0000
					CHANNELS 3 Zrotation Xrotation Yrotation
					JOINT RightElbow
					{
						OFFSET -27.2190 0.0000 0.0000
						CHANNELS 3 Zrotation Xrotation Yrotation
						JOINT RightWrist
						{
							OFFSET -30.7431 0.0000 0.0000
							CHANNELS 3 Zrotation Xrotation Yrotation
							End Site
							{
								OFFSET -0.0000 -14.7500 0.0000
							}
						}
					}
				}
			}
		}
	}
	JOINT LeftHip
	{
		OFFSET 11.8000 0.0000 0.0000
		CHANNELS 3 Zrotation Xrotation Yrotation
		JOINT LeftKnee
		{
			OFFSET -0.0000 -39.7832 0.0000
			CHANNELS 3 Zrotation Xrotation Yrotation
			JOINT LeftAnkle
			{
				OFFSET -0.0000 -41.7317 0.0000
				CHANNELS 3 Zrotation Xrotation Yrotation
				End Site
				{
					OFFSET -0.0000 -4.9167 16.7167
				}
			}
		}
	}
	JOINT RightHip
	{
		OFFSET -11.8000 0.0000 0.0000
		CHANNELS 3 Zrotation Xrotation Yrotation
		JOINT RightKnee
		{
			OFFSET -0.0000 -39.7832 0.0000
			CHANNELS 3 Zrotation Xrotation Yrotation
			JOINT RightAnkle
			{
				OFFSET -0.0000 -41.7317 0.0000
				CHANNELS 3 Zrotation Xrotation Yrotation
				End Site
				{
					OFFSET -0.0000 -4.9167 16.7167
				}
			}
		}
	}
}
MOTION
Frames: 14
Frame Time: 0.010000
-3.1685 89.9236 52.2721 359.2157 358.2637 176.6199 0.2499 348.9857 1.8914 5.8673 11.2327 1.2882 353.7941 351.7533 358.6383 2.7652 4.8622 358.9643 339.8408 357.4646 14.2277 313.2905 57.4073 349.7480 7.0024 357.8827 324.9542 85.6194 356.7123 345.9505 27.9282 355.8784 343.7997 41.0021 45.4486 5.7049 340.9592 354.3092 33.9490 273.0407 356.0289 10.5710 2.4946 338.4070 9.2064 356.4891 24.3045 357.3400 353.5596 349.6442 17.9932 4.8575 11.2410 6.1551 6.5477 0.5684 6.7645 350.9865 341.8065 324.9157 
-3.1390 89.8747 51.9923 359.2461 358.1641 176.3734 0.2260 348.9673 1.9323 5.8944 11.2542 1.3293 353.7422 351.6957 358.6796 2.7871 4.8667 359.0194 339.8100 357.4279 14.3095 313.1371 57.3430 350.0142 6.6870 357.9919 325.3120 85.6435 356.7761 345.5396 27.7625 355.9472 343.6422 41.0380 46.0350 5.9531 340.6246 354.1346 33.4834 273.1301 356.0398 10.2447 2.3773 338.1491 8.9930 356.5557 23.1755 357.3128 353.5317 349.9828 18.0156 4.8772 11.2493 6.3372 6.5489 0.6994 6.8995 350.5135 342.0074 324.7609 
-3.0918 89.8248 51.6745 359.3554 358.0943 176.2460 0.2162 348.8284 1.9057 5.9632 11.5723 1.2773 353.8165 351.2703 358.6141 2.6939 5.0762 358.9652 339.9325 357.4303 14.3361 313.0305 57.2247 350.0537 6.3289 358.1255 325.6191 85.6359 356.8518 345.1309 27.6173 355.9394 343.5114 41.3002 45.4516 5.9986 340.7024 354.1383 33.3779 273.2558 355.9279 10.7339 2.3076 337.9408 8.7392 356.4159 21.7005 357.6908 353.8748 350.3881 18.2265 5.0260 11.4009 6.4489 6.5026 0.6634 6.9083 350.4136 342.0650 324.7738 
-3.0762 89.7721 51.3675 359.3990 358.0451 176.0214 0.1679 348.9084 1.9464 6.0945 11.4453 1.3200 353.6755 351.3442 358.6241 2.6726 5.0146 358.9895 339.7964 357.4244 14.2845 312.6818 57.0827 350.6674 5.9354 358.2712 325.9006 85.8466 356.8439 344.7157 27.6668 355.9606 343.6836 41.3397 45.5812 5.5774 340.7318 354.1909 33.1658 273.1651 355.9053 10.6157 2.1690 337.7748 8.5400 356.4611 20.6156 357.8092 354.0207 350.6970 18.4030 5.0522 11.4912 6.5067 6.5206 0.7536 7.0906 350.2774 342.0755 324.6388 
-3.0556 89.7170 51.0549 359.4482 358.0020 175.8002 0.1784 348.8930 1.9525 6.0660 11.5368 1.3220 353.6689 351.2526 358.5993 2.6757 5.0149 358.9656 339.8010 357.4256 14.2621 312.5145 56.9437 350.9572 5.7622 358.3052 326.1357 85.3581 356.9530 344.3615 27.6457 355.9461 343.6893 41.5219 45.4833 5.3719 340.6665 354.1957 33.0762 273.3287 355.8691 10.8169 2.0609 337.6936 8.2389 356.3674 19.3956 358.2639 353.7635 350.9350 18.4644 5.1324 11.5635 6.3451 6.4321 0.9525 7.4378 350.1439 342.0330 324.5811 
-3.0080 89.6562 50.7322 359.5246 357.8933 175.4883 0.1687 348.8029 2.0116 6.1439 11.5942 1.3727 353.5125 351.2689 358.5971 2.7206 4.9902 358.9772 339.6831 357.4366 14.1650 312.1021 56.4977 351.6679 5.4598 358.4123 326.2944 84.9338 357.0977 343.9373 27.6308 355.9711 343.7181 41.5958 45.4173 5.1989 340.7191 354.2631 32.9703 273.3176 355.8637 10.8448 2.0716 337.5759 8.2335 356.3727 18.3251 358.4608 353.6470 351.1504 18.4597 5.2279 11.5802 6.3693 6.3562 1.1655 7.8989 350.0704 342.0087 324.3793 
-2.9889 89.5969 50.4115 359.5858 357.8451 175.2499 0.2028 348.8021 2.0371 6.0720 11.6322 1.3980 353.6142 351.1984 358.5913 2.5935 5.0379 358.9697 339.6629 357.4604 14.1479 312.0582 56.3519 351.8637 5.2427 358.4741 326.5313 84.7598 357.0663 343.4964 27.6324 355.9706 343.7193 41.8120 45.3472 4.9830 340.6722 354.2663 32.8557 273.4061 355.9122 10.7864 2.0020 337.5418 8.1010 356.4139 17.1834 358.5106 353.7503 351.5155 18.5652 5.2732 11.6921 6.5491 6.3467 1.2387 7.9393 349.8890 342.0196 324.3247 
-2.9786 89.5340 50.0891 359.6471 357.7873 175.0359 0.2293 348.7644 2.0501 6.0396 11.7533 1.4051 353.5661 351.0380 358.5741 2.6246 5.0828 358.9625 339.6725 357.4424 14.1326 311.8740 56.2003 352.1137 5.1768 358.4548 326.7138 84.4654 357.1120 343.1961 27.6077 355.9572 343.7081 41.8988 45.1904 4.8893 340.7569 354.2971 32.8061 273.4009 355.9562 10.8859 1.9004 337.4916 7.8736 356.4632 16.1973 358.8107 353.5686 351.7179 18.5470 5.3085 11.7844 6.7380 6.3560 1.3435 8.0241 349.8096 342.0121 324.1816 
-2.9522 89.4729 49.7592 359.7556 357.7137 174.8569 0.2680 348.7341 2.0554 6.0540 11.7849 1.4019 353.4775 351.0640 358.5595 2.6721 4.9867 358.9513 339.6563 357.4791 14.1654 311.8419 56.1603 352.1752 5.0140 358.5375 326.9852 84.3130 357.1065 342.9415 27.6087 355.9926 343.6980 41.9997 45.0880 4.7017 340.8392 354.3264 32.7745 273.3720 356.0201 10.9248 1.8910 337.4562 7.7135 356.4499 15.2486 358.9763 353.8355 351.8688 18.5958 5.4352 11.8861 6.8037 6.3270 1.4332 8.1127 349.6355 341.9457 324.0607 
-2.9469 89.4066 49.4210 359.8077 357.6435 174.6572 0.2832 348.6943 2.0670 5.9978 11.8270 1.4173 353.5520 351.0483 358.5804 2.5367 4.9758 358.9773 339.6003 357.4241 14.2687 312.0159 56.4306 352.1404 5.1544 358.4994 327.2020 84.1768 357.0697 342.9979 27.6169 355.9611 343.7265 42.1264 45.0932 4.5226 340.7951 354.3314 32.6599 273.5518 355.9971 10.9633 1.7926 337.4587 7.5776 356.4884 14.3435 359.2322 354.0808 351.9795 18.5456 5.4592 11.9981 6.9370 6.3142 1.5269 8.3669 349.4987 341.8653 323.8255 
-2.9465 89.3399 49.0789 359.8613 357.5861 174.4638 0.3039 348.6549 2.0654 5.9794 11.9201 1.4100 353.4050 350.9720 358.5748 2.6402 4.9452 358.9847 339.5779 357.3896 14.2889 311.9224 56.3221 352.2765 5.0569 358.5213 327.3424 84.5485 357.2611 343.4046 27.6007 355.9864 343.7326 42.2211 45.0510 4.3769 340.9707 354.3910 32.7132 273.0997 356.0526 11.1555 1.6871 337.5597 6.8708 356.4360 13.3918 359.8317 353.8618 352.2160 18.6290 5.4831 12.1120 6.8935 6.2876 1.6640 8.7147 349.4111 341.7185 323.6351 
-2.9452 89.2736 48.7316 359.9224 357.5248 174.2802 0.3620 348.6529 2.0577 5.8612 11.9015 1.4099 353.4092 351.0179 358.6066 2.6634 4.8749 359.0103 339.5331 357.3986 14.2838 311.9059 56.1257 352.4409 4.9012 358.5738 327.5246 84.2651 357.2009 342.9657 27.6386 355.9960 343.7614 42.3699 45.0453 4.1857 341.0093 354.3921 32.5920 273.2156 356.0868 11.3402 1.6068 337.5794 6.8463 356.5387 12.7871 359.8168 353.5902 352.1887 18.6420 5.5320 12.1917 7.0044 6.2477 1.8585 8.8745 349.3534 341.5000 323.4279 
-2.9430 89.2043 48.3711 0.0011 357.4617 174.0968 0.3645 348.6044 2.0707 5.8974 11.9600 1.4156 353.3018 351.0096 358.6093 2.6691 4.8004 359.0240 339.4706 357.4180 14.2716 311.8172 55.9663 352.5721 4.8655 358.5559 327.6183 84.2809 357.2476 342.8516 27.6199 355.9657 343.7959 42.4722 44.9771 4.0018 340.9904 354.4133 32.5229 273.4303 356.0387 11.4806 1.5911 337.5530 7.3261 356.6757 12.4158 359.1625 354.0143 352.2284 18.7274 5.5738 12.3402 7.0533 6.2403 1.9293 8.9764 349.3083 341.3326 323.4101 
-2.9532 89.1345 48.0239 0.0521 357.3368 173.9591 0.4164 348.5241 2.0361 5.7682 11.9739 1.3868 353.4532 350.9774 358.6475 2.4802 4.7908 359.0641 339.4995 357.4254 14.3236 311.9355 55.9603 352.4594 4.9371 358.5437 327.7640 84.0794 357.1936 342.7607 27.6444 356.0047 343.7851 42.5902 44.9678 3.8646 341.1046 354.4622 32.4618 273.4115 356.0465 11.6220 1.4964 337.5216 7.1573 356.7734 11.9598 359.0900 353.8951 352.2864 18.7881 5.5909 12.4170 7.0242 6.2262 2.0155 9.2317 349.0098 341.4528 323.4972 
